<svg xmlns="http://www.w3.org/2000/svg" version="1.1" xmlns:xlink="http://www.w3.org/1999/xlink" xmlns:svgjs="http://svgjs.dev/svgjs" width="100%" height="100%" viewBox="0 0 1000 600"><rect width="1000" height="600" x="0" y="0" fill="#191919"/><g><circle r="166.66666666666666" cx="353.61074320475257" cy="375.8329468468204" fill="#b88746" transform="matrix(0.6686491795607092,0,0,0.6686491795607092,0,48.69959699489809)"/><path d="M276.53628524916485 427.651125521237L327.2809616071785 302.92192960179693L356.9618100429978 302.92192960179693L356.9618100429978 448.7439669805143L337.95794325369025 448.7439669805143L337.95794325369025 322.99929726317225L337.5227401974465 322.99929726317225L286.1397660236088 448.7439669805143L266.4976014184772 448.7439669805143L214.91153248505904 322.99929726317225L214.70843772547863 322.99929726317225L214.70843772547863 448.7439669805143L195.67555739908818 448.7439669805143L195.67555739908818 302.92192960179693L225.3564058349075 302.92192960179693L276.1010821929211 427.651125521237L276.53628524916485 427.651125521237ZM511.5459356207546 333.2120623163574L510.50144828576975 333.2120623163574Q488.9734037702488 319.0244426828133 463.06431515520813 319.0244426828133Q437.18424007725037 319.0244426828133 422.5614173874626 334.8948474671663Q407.9385946976747 350.76525225151937 407.9385946976747 375.8329482911556Q407.9385946976747 400.90064433079186 422.5614173874626 416.77104911514493Q437.18424007725037 432.67046743658085 463.06431515520813 432.67046743658085Q488.9734037702488 432.67046743658085 510.50144828576975 418.45383426595384L510.50144828576975 418.45383426595384L511.5459356207546 418.45383426595384L511.5459356207546 437.254606295681Q488.9734037702488 450.832941650484 462.01982782022327 450.832941650484L462.01982782022327 450.832941650484Q430.0759234919368 450.832941650484 409.505325700152 430.4654386182795Q388.90571437128426 410.09793558607504 388.90571437128426 375.8329482911556Q388.90571437128426 341.5679609962362 409.505325700152 321.20045796403167Q430.0759234919368 300.83295493182726 462.01982782022327 300.83295493182726L462.01982782022327 300.83295493182726Q488.9734037702488 300.83295493182726 511.5459356207546 314.4112902866302L511.5459356207546 314.4112902866302L511.5459356207546 333.2120623163574Z " fill="#191919" transform="matrix(0.6686491795607092,0,0,0.6686491795607092,0,48.69959699489809)"/><path d="M664.347327142804 397.33156112177954L702.4629691507788 303.6442283646134L724.7570239101603 303.6442283646134L724.7570239101603 413.1749411902745L710.4827268745837 413.1749411902745L710.4827268745837 318.7248597365508L710.1558345760591 318.7248597365508L671.560750530248 413.1749411902745L656.8070114568353 413.1749411902745L618.0593776717128 318.7248597365508L617.9068279324014 318.7248597365508L617.9068279324014 413.1749411902745L603.6107380769231 413.1749411902745L603.6107380769231 303.6442283646134L625.9047928363045 303.6442283646134L664.0204348442794 397.33156112177954L664.347327142804 397.33156112177954ZM822.6721637282453 373.1633238508567L822.6721637282453 373.1633238508567L822.6721637282453 378.17567242823475L762.0881244016759 378.17567242823475Q763.3521079559712 389.1592536586632 770.2604318647923 395.283036051025Q777.1687557736134 401.4068184433869 791.2033317902719 401.4068184433869Q805.2379078069304 401.4068184433869 817.1803731130311 393.5614032787952L817.1803731130311 393.5614032787952L817.9649146294903 393.5614032787952L817.9649146294903 407.3780510964373Q804.7802585889958 414.74402422319287 786.975524729353 414.74402422319287Q769.1489980498085 414.74402422319287 758.4051378382982 403.847614272371Q747.6612776267878 392.9294115016475 747.6612776267878 374.3401361255455Q747.6612776267878 355.7508607494434 757.2283255636094 343.6558457040312Q766.795373500431 331.5826234785206 785.1667206775167 331.5826234785206Q803.5162750347006 331.5826234785206 813.0833229715221 343.6558457040312Q822.6721637282453 355.7508607494434 822.6721637282453 373.1633238508567ZM762.0881244016759 366.5818922405603L762.0881244016759 366.5818922405603L808.376073872767 366.5818922405603Q807.7658749155211 355.2714187116073 800.7703797270934 349.47452861777003Q793.7966773585674 343.6558457040312 785.1667206775167 343.6558457040312Q776.5367639964657 343.6558457040312 769.6284400876447 349.47452861777003Q762.7201161788236 355.2714187116073 762.0881244016759 366.5818922405603ZM901.7365143314086 343.19819648609666L903.4799399235401 333.15170651143893L916.0326041868868 333.15170651143893L916.0326041868868 409.7316756458148Q916.0326041868868 429.49776329660557 906.4437634301637 440.15445222850934Q896.8767154933421 450.83293398031475 878.7668821550762 450.83293398031475Q860.6352559969087 450.83293398031475 845.7289671841843 442.83496907641154L845.7289671841843 442.83496907641154L845.7289671841843 428.71322178014645L846.5135087006436 428.71322178014645Q859.8507144804494 437.34317846119734 877.7426196196989 437.34317846119734L877.7426196196989 437.34317846119734Q901.7365143314086 437.34317846119734 901.7365143314086 411.7584078966677L901.7365143314086 411.7584078966677L901.7365143314086 401.5593681826984L901.278865113474 401.5593681826984Q890.4478336223572 413.1749411902745 875.3889950703214 413.1749411902745Q860.3301565182855 413.1749411902745 848.6274122311029 402.43108097876416Q836.946460763822 391.68722076725385 836.946460763822 372.37878233439756Q836.946460763822 353.07034390154126 848.6274122311029 342.3264836900309Q860.3301565182855 331.5826234785206 875.3889950703214 331.5826234785206Q890.4478336223572 331.5826234785206 901.278865113474 343.19819648609666L901.278865113474 343.19819648609666L901.7365143314086 343.19819648609666ZM901.7365143314086 388.54905470141716L901.7365143314086 388.54905470141716L901.7365143314086 356.20850996737795Q890.4478336223572 344.6147297797035 878.2874401172401 344.6147297797035Q866.1270466121227 344.6147297797035 858.6739022057607 351.740981887541Q851.2207577993986 358.8890268152801 851.2207577993986 372.37878233439756Q851.2207577993986 385.86853785351497 858.6739022057607 393.0165827812541Q866.1270466121227 400.1428348890916 878.2874401172401 400.1428348890916Q890.4478336223572 400.1428348890916 901.7365143314086 388.54905470141716ZM942.2275737086625 350.4116198735407L942.2275737086625 337.55385613157097Q955.8698789670915 331.5826234785206 971.49533083657 331.5826234785206Q987.0989898861469 331.5826234785206 995.4238470885748 340.69202219740765Q1003.726911471101 349.7796280963931 1003.726911471101 362.4848420990513L1003.726911471101 362.4848420990513L1003.726911471101 413.1749411902745L991.1742472077542 413.1749411902745L989.4526144355243 403.12845121561674L988.9949652175899 403.12845121561674Q977.6844916886367 414.74402422319287 959.9669291086004 414.74402422319287L959.9669291086004 414.74402422319287Q949.2884473567951 414.74402422319287 941.835302950433 408.31514235220794Q934.3821585440708 401.8862604812231 934.3821585440708 390.72833669158155Q934.3821585440708 379.5922057218416 943.5569357226627 372.68388181302055Q952.7317129012548 365.79735072410114 970.4710683011926 365.79735072410114L970.4710683011926 365.79735072410114L989.4526144355243 365.79735072410114L989.4526144355243 364.53336716980584Q989.4526144355243 354.18177771652506 984.3530945785398 349.62707835708153Q979.2535747215552 345.07237899763805 966.7009104582085 345.07237899763805Q954.1482461948617 345.07237899763805 943.1646649644332 350.4116198735407L943.1646649644332 350.4116198735407L942.2275737086625 350.4116198735407ZM989.4526144355243 390.4232372129585L989.4526144355243 390.4232372129585L989.4526144355243 377.2385811724641L972.3452508127341 377.2385811724641Q948.6564555796474 377.2385811724641 948.6564555796474 389.7258669761059Q948.6564555796474 402.19135995984607 965.2843771646016 402.19135995984607L965.2843771646016 402.19135995984607Q972.1927010734227 402.19135995984607 978.6215829444075 398.8134728750913Q985.072257635294 395.4355857903366 989.4526144355243 390.4232372129585ZM1116.3957903625987 326.3959323419294L1115.6112488461395 326.3959323419294Q1099.44097647912 315.73924341002567 1080.001781126854 315.73924341002567Q1060.540792954686 315.73924341002567 1049.5572117242577 327.65991589622473Q1038.5736304938291 339.5805883824238 1038.5736304938291 358.40958477744397Q1038.5736304938291 377.2385811724641 1049.5572117242577 389.1592536586632Q1060.540792954686 401.1017189647639 1080.001781126854 401.1017189647639Q1099.44097647912 401.1017189647639 1115.6112488461395 390.4232372129585L1115.6112488461395 390.4232372129585L1116.3957903625987 390.4232372129585L1116.3957903625987 404.54498450922364Q1099.44097647912 414.74402422319287 1079.2172396103947 414.74402422319287L1079.2172396103947 414.74402422319287Q1055.2015520787832 414.74402422319287 1039.750442768518 399.44546465223897Q1024.2993334582527 384.1469050812851 1024.2993334582527 358.40958477744397Q1024.2993334582527 332.67226447360275 1039.750442768518 317.3737049026489Q1055.2015520787832 302.07514533169507 1079.2172396103947 302.07514533169507L1079.2172396103947 302.07514533169507Q1099.44097647912 302.07514533169507 1116.3957903625987 312.2741850456643L1116.3957903625987 312.2741850456643L1116.3957903625987 326.3959323419294ZM1152.332150380409 413.1749411902745L1138.0578533448324 413.1749411902745L1138.0578533448324 333.15170651143893L1152.332150380409 333.15170651143893L1152.332150380409 413.1749411902745ZM1137.5784113069963 300.8329545973014L1152.9641421575568 300.8329545973014L1152.9641421575568 316.19689262796015L1137.5784113069963 316.19689262796015L1137.5784113069963 300.8329545973014ZM1219.9552705352096 333.15170651143893L1219.9552705352096 345.3992712961627L1197.2035665578937 345.3992712961627L1197.2035665578937 392.776861762336Q1197.2035665578937 399.35829337263243 1200.8211746615661 400.9273764055508L1200.8211746615661 400.9273764055508Q1203.7849981681898 402.19135995984607 1208.492247266945 402.19135995984607Q1213.1994963657 402.19135995984607 1218.8656295401272 399.68518567115706L1218.8656295401272 399.68518567115706L1219.9552705352096 399.68518567115706L1219.9552705352096 411.30075867873313Q1213.3738389249131 414.74402422319287 1205.8335232389445 414.74402422319287L1205.8335232389445 414.74402422319287Q1182.9292695223169 414.74402422319287 1182.9292695223169 394.04084531663136L1182.9292695223169 394.04084531663136L1182.9292695223169 345.3992712961627L1168.0229807095927 345.3992712961627L1168.0229807095927 344.4403872204904L1197.2035665578937 315.89179314933716L1197.2035665578937 333.15170651143893L1219.9552705352096 333.15170651143893ZM1293.2227310445357 333.15170651143893L1308.608461895096 333.15170651143893L1260.4463299124634 449.2638509473964L1245.9976903176737 449.2638509473964L1259.487445836791 414.4389247445698L1226.3841524061943 333.15170651143893L1241.7698832567548 333.15170651143893L1266.8752117834483 396.3944698660089L1267.507203560596 396.3944698660089L1293.2227310445357 333.15170651143893Z " fill="#b88746" transform="matrix(0.6686491795607092,0,0,0.6686491795607092,0,48.69959699489809)"/></g></svg>